<svg xmlns="http://www.w3.org/2000/svg" width="14.996" height="15.438" viewBox="0 0 14.996 15.438">
    <defs>
        <clipPath id="w9gdxihgfa">
            <path data-name="사각형 215" style="fill:none" d="M0 0h14.996v15.438H0z"/>
        </clipPath>
    </defs>
    <g data-name="그룹 177" style="clip-path:url(#w9gdxihgfa)">
        <path data-name="패스 108" d="M1.824 7.019a5.238 5.238 0 0 0 0 1.406L0 10.172l1.625 2.815 2.417-.7a5.707 5.707 0 0 0 1.232.72l.6 2.432h3.251l.6-2.432a5.7 5.7 0 0 0 1.233-.721l2.415.7L15 10.17l-1.82-1.746a5.224 5.224 0 0 0 0-1.409l.469-1.7L12.3 2.884l-1.363.274a5.709 5.709 0 0 0-1.2-.7L9.123 0H5.872l-.6 2.458a5.711 5.711 0 0 0-1.2.7l-2.447-.705L0 5.268zm5.36-1.124a1.863 1.863 0 1 1-1.52 1.521 1.864 1.864 0 0 1 1.52-1.521" style="fill:#c6cdd4"/>
        <path data-name="패스 26105" d="M13.172 7.018a5.238 5.238 0 0 1 0 1.406L15 10.172l-1.63 2.815-2.417-.7a5.707 5.707 0 0 1-1.232.72l-.6 2.432H5.872l-.6-2.432a5.7 5.7 0 0 1-1.233-.721l-2.415.7L0 10.17l1.82-1.746a5.224 5.224 0 0 1 0-1.409l-.469-1.7L2.7 2.884l1.363.274a5.709 5.709 0 0 1 1.2-.7L5.874 0h3.251l.6 2.458a5.711 5.711 0 0 1 1.2.7l2.438-.708L15 5.268zM7.813 5.895a1.863 1.863 0 1 0 1.52 1.521 1.864 1.864 0 0 0-1.52-1.521" style="fill:#c6cdd4"/>
    </g>
</svg>
