<svg xmlns="http://www.w3.org/2000/svg" width="224" height="56" fill="none" viewBox="0 0 56 14"><path fill="#273552" d="M6.653 4.113c1.525 0 2.758 1.327 2.7 2.865C9.297 8.44 8.05 9.634 6.586 9.634h-1.93a.236.236 0 0 1-.236-.235V4.348c0-.13.106-.235.235-.235zM6.653 1H1.955a.705.705 0 0 0-.705.705v10.337c0 .388.316.704.705.704h4.698A5.874 5.874 0 0 0 6.653 1M54.576 5.792c0-2.84-2.1-4.792-4.602-4.792-1.412 0-2.18.524-2.94 1.18a.23.23 0 0 1-.304 0C45.96 1.524 45.135 1 43.84 1c-2.608 0-4.652 2.139-4.652 4.792v6.015c0 .388.316.704.705.704h1.762a.705.705 0 0 0 .704-.704V5.533c0-.758.597-1.478 1.469-1.478.799 0 1.468.642 1.468 1.478v6.274c0 .388.316.704.705.704h1.762a.705.705 0 0 0 .705-.704V5.533c0-.762.596-1.479 1.468-1.479.776 0 1.468.59 1.468 1.479v6.274c0 .388.316.704.705.704h1.762a.705.705 0 0 0 .705-.704zM25.213 7.337c0-4.78-3.656-6.386-5.874-6.336-3.365.078-5.753 2.598-5.868 5.643a5.874 5.874 0 0 0 8.7 5.375.47.47 0 0 1 .46.005l1.526.88a.705.705 0 0 0 1.057-.611V7.335zm-8.575-.464c0-1.55 1.031-2.76 2.701-2.76s2.702 1.173 2.702 2.76c0 1.504-1.007 2.76-2.702 2.76s-2.701-1.248-2.701-2.76M36.96 1.47h-1.762a.705.705 0 0 0-.705.705v5.402a2.353 2.353 0 0 1-2.35 2.35 2.35 2.35 0 0 1-2.35-2.35V2.175a.705.705 0 0 0-.705-.705h-1.762a.705.705 0 0 0-.705.705v5.284a5.53 5.53 0 0 0 5.522 5.522 5.53 5.53 0 0 0 5.522-5.522V2.175a.705.705 0 0 0-.705-.705"/></svg>