<svg xmlns="http://www.w3.org/2000/svg" width="11.085" height="13" viewBox="0 0 11.085 13">
    <defs>
        <clipPath id="le23yovpna">
            <path data-name="사각형 13183" style="fill:#fff" d="M0 0h11.085v13H0z"/>
        </clipPath>
    </defs>
    <g data-name="그룹 25928" style="clip-path:url(#le23yovpna)">
        <path data-name="패스 26163" d="M3.3 9.768A3.3 3.3 0 0 1 0 6.471C0 4.795 2.676.639 2.982.171a.376.376 0 0 1 .631 0c.305.468 2.982 4.624 2.982 6.3a3.3 3.3 0 0 1-3.3 3.3m0-8.691C2.375 2.556.753 5.38.753 6.471a2.544 2.544 0 1 0 5.088 0c0-1.091-1.621-3.915-2.541-5.393" style="fill:#fff"/>
        <path data-name="패스 26164" d="M24.738 28.818a2.142 2.142 0 0 1-2.138-2.139c0-1.055 1.637-3.6 1.824-3.883a.391.391 0 0 1 .631 0c.187.286 1.824 2.829 1.824 3.883a2.142 2.142 0 0 1-2.139 2.139m0-5.111a9.717 9.717 0 0 0-1.386 2.972 1.386 1.386 0 0 0 2.772 0 9.717 9.717 0 0 0-1.386-2.972" transform="translate(-15.792 -15.818)" style="fill:#fff"/>
    </g>
</svg>
