<svg xmlns="http://www.w3.org/2000/svg" width="22" height="22" viewBox="0 0 22 22">
    <defs>
        <clipPath id="cr1fv88ywa">
            <path data-name="사각형 3" style="fill:#666" d="M0 0h22v22H0z"/>
        </clipPath>
    </defs>
    <g data-name="그룹 1" style="clip-path:url(#cr1fv88ywa)">
        <path data-name="패스 1" d="M2.595 2.577a8.928 8.928 0 0 1 12.55 0 8.745 8.745 0 0 1 .747 11.585l5.786 5.916a1.126 1.126 0 0 1-.025 1.6 1.151 1.151 0 0 1-1.617-.025l-5.763-5.892A8.927 8.927 0 0 1 2.6 15.016a8.751 8.751 0 0 1 0-12.439m1.613 10.836a6.636 6.636 0 0 0 9.315 0 6.5 6.5 0 0 0 0-9.233 6.627 6.627 0 0 0-9.315 0 6.5 6.5 0 0 0 0 9.233" style="fill:#666"/>
    </g>
</svg>
