<svg xmlns="http://www.w3.org/2000/svg" width="22" height="17" viewBox="0 0 22 17">
    <g data-name="합치기 4" style="fill:#fcfcfc">
        <path d="m445 1948.1-2.25-3.377-.15-.223H438c-1.93 0-3.5-1.57-3.5-3.5v-5c0-1.93 1.57-3.5 3.5-3.5h14c1.93 0 3.5 1.57 3.5 3.5v5c0 1.93-1.57 3.5-3.5 3.5h-4.601l-.148.223-2.251 3.376z" style="stroke:none" transform="translate(-434 -1932)"/>
        <path d="m445 1947.198 2.132-3.198H452c1.654 0 3-1.346 3-3v-5c0-1.654-1.346-3-3-3h-14c-1.654 0-3 1.346-3 3v5c0 1.654 1.346 3 3 3h4.868l2.132 3.198m0 1.802-2.667-4H438a4 4 0 0 1-4-4v-5a4 4 0 0 1 4-4h14a4 4 0 0 1 4 4v5a4 4 0 0 1-4 4h-4.333l-2.667 4z" style="fill:#999;stroke:none" transform="translate(-434 -1932)"/>
    </g>
    <text transform="translate(11 10)" style="fill:#999;font-size:10px;font-family:Pretendard-Medium,Pretendard;font-weight:500"><tspan x="-6.797" y="0">AD</tspan></text>
</svg>
