<svg xmlns="http://www.w3.org/2000/svg" width="14" height="14" viewBox="0 0 14 14">
    <defs>
        <clipPath id="nxczio77na">
            <path data-name="사각형 13181" transform="translate(1440 674)" style="fill:none" d="M0 0h14v14H0z"/>
        </clipPath>
        <clipPath id="ez13e440hb">
            <path data-name="사각형 13182" style="fill:#fff" d="M0 0h12.238v12.237H0z"/>
        </clipPath>
    </defs>
    <g data-name="마스크 그룹 18" transform="translate(-1440 -674)" style="clip-path:url(#nxczio77na)">
        <g data-name="그룹 25927">
            <g data-name="그룹 25926" transform="translate(1440.881 674.881)" style="clip-path:url(#ez13e440hb)">
                <path data-name="패스 26161" d="M6.467 4.281a2.181 2.181 0 1 0 2.18 2.182 2.183 2.183 0 0 0-2.18-2.182m0 3.443a1.261 1.261 0 1 1 1.261-1.261 1.262 1.262 0 0 1-1.261 1.261" transform="translate(-.344 -.344)" style="fill:#fff"/>
                <path data-name="패스 26162" d="M11.777 5.658h-1.2a4.48 4.48 0 0 0-4-4V.46a.46.46 0 0 0-.92 0v1.2a4.48 4.48 0 0 0-3.993 4H.46a.46.46 0 0 0 0 .92h1.207a4.48 4.48 0 0 0 3.993 4v1.2a.46.46 0 0 0 .92 0v-1.2a4.48 4.48 0 0 0 4-4h1.2a.46.46 0 0 0 0-.92M6.123 9.7a3.583 3.583 0 1 1 3.583-3.582A3.587 3.587 0 0 1 6.123 9.7" style="fill:#fff"/>
            </g>
        </g>
    </g>
</svg>
