<svg xmlns="http://www.w3.org/2000/svg" width="29.832" height="24" viewBox="0 0 29.832 24">
    <defs>
        <clipPath id="h2atu8ouca">
            <path data-name="사각형 215" style="fill:none" d="M0 0h29.832v24H0z"/>
        </clipPath>
    </defs>
    <g data-name="그룹 177" style="clip-path:url(#h2atu8ouca)">
        <path data-name="패스 108" d="M2.836 10.911a8.143 8.143 0 0 0 0 2.186L0 15.813l2.528 4.377 3.757-1.09A8.871 8.871 0 0 0 8.2 20.219L9.131 24h5.054l.93-3.781a8.867 8.867 0 0 0 1.917-1.119l3.754 1.089 2.527-4.377-2.829-2.712a8.121 8.121 0 0 0-.005-2.191l.729-2.636-2.094-3.789-2.119.426a8.876 8.876 0 0 0-1.873-1.091L14.182 0H9.128l-.94 3.822a8.878 8.878 0 0 0-1.871 1.091l-3.791-1.1L0 8.189zm8.332-1.747A2.9 2.9 0 1 1 8.8 11.528a2.9 2.9 0 0 1 2.364-2.364" style="fill:#c6cdd4"/>
        <path data-name="패스 110" d="M90.7 5.455a.847.847 0 0 0-1.34.69v2.948a1.082 1.082 0 0 1-1.069 1.082h-1.345a1.082 1.082 0 0 1-1.069-1.082V6.145a.847.847 0 0 0-1.34-.69 5.755 5.755 0 0 0 .907 9.84v10.971a1.935 1.935 0 0 0 1.582 1.9v.034h1.185v-.034a1.935 1.935 0 0 0 1.582-1.9V15.3a5.755 5.755 0 0 0 .907-9.84" transform="rotate(11 76.825 -324.07)" style="fill:#a4acb4"/>
    </g>
</svg>
