<svg xmlns="http://www.w3.org/2000/svg" width="13.2" height="13.135" viewBox="0 0 13.2 13.135">
    <defs>
        <clipPath id="v8m857jqia">
            <path data-name="사각형 13017" style="fill:none" d="M0 0h13.2v13.135H0z"/>
        </clipPath>
    </defs>
    <g data-name="구성 요소 73 – 1">
        <g data-name="그룹 25762" style="clip-path:url(#v8m857jqia)">
            <path data-name="패스 26111" d="M12.735 1.5h-1.079a2.133 2.133 0 0 0-4.071 0H.466A.464.464 0 0 0 0 1.961v.373a.464.464 0 0 0 .466.466h7.119a2.133 2.133 0 0 0 4.071 0h1.079a.465.465 0 0 0 .465-.465v-.374a.464.464 0 0 0-.465-.465m-1.9.651a1.194 1.194 0 0 1-.216.651 1.17 1.17 0 0 1-2 0 1.179 1.179 0 0 1-.219-.651 1.176 1.176 0 0 1 .219-.647 1.169 1.169 0 0 1 2 0 1.191 1.191 0 0 1 .216.651" style="fill:#333"/>
            <path data-name="패스 26112" d="M12.735 11.007h-1.079a2.133 2.133 0 0 0-4.071 0H.466a.464.464 0 0 0-.466.465v.373a.464.464 0 0 0 .465.465h7.12a2.133 2.133 0 0 0 4.071 0h1.079a.464.464 0 0 0 .465-.465v-.373a.465.465 0 0 0-.465-.465m-1.9.651a1.2 1.2 0 0 1-2.22.651 1.091 1.091 0 0 1 0-1.3 1.219 1.219 0 0 1 2.22.651" transform="translate(0 -.672)" style="fill:#333"/>
            <path data-name="패스 26113" d="M12.735 6.5H5.818a2.133 2.133 0 0 0-4.071 0H.465A.464.464 0 0 0 0 6.961v.373a.465.465 0 0 0 .465.466h1.281a2.133 2.133 0 0 0 4.071 0h6.917a.465.465 0 0 0 .465-.465v-.374a.464.464 0 0 0-.465-.465M5 7.147a1.186 1.186 0 0 1-.216.651 1.17 1.17 0 0 1-2 0 1.091 1.091 0 0 1 0-1.3 1.169 1.169 0 0 1 2 0A1.183 1.183 0 0 1 5 7.147" transform="translate(0 -.353)" style="fill:#333"/>
        </g>
    </g>
</svg>
