<svg xmlns="http://www.w3.org/2000/svg" width="10" height="10" viewBox="0 0 10 10">
    <g data-name="그룹 25925">
        <g data-name="그룹 25534">
            <path data-name="패스 26000" d="M20.829 26.441a.441.441 0 1 1-.44-.441.441.441 0 0 1 .441.441" transform="translate(-16.725 -22.397)" style="fill:#fff"/>
            <path data-name="패스 26001" d="M44.829 26.441a.441.441 0 1 1-.44-.441.441.441 0 0 1 .441.441" transform="translate(-38.081 -22.397)" style="fill:#fff"/>
            <path data-name="패스 26002" d="M23.974 46.359H21.33a.33.33 0 1 1 0-.661h2.644a.33.33 0 1 1 0 .661" transform="translate(-17.661 -39.925)" style="fill:#fff"/>
        </g>
        <path data-name="타원 496" d="M5 .75A4.25 4.25 0 1 0 9.25 5 4.255 4.255 0 0 0 5 .75M5 0a5 5 0 1 1-5 5 5 5 0 0 1 5-5z" style="fill:#fff"/>
    </g>
</svg>
