<svg xmlns="http://www.w3.org/2000/svg" width="31.836" height="10.862" viewBox="0 0 31.836 10.862">
    <path d="M10.858 5.42A5.431 5.431 0 1 1 6.833.175a5.431 5.431 0 0 1 4.025 5.245zM6.336 2.868V5.6l-1.9-2.73H2.875v5.11h1.643V5.241l1.9 2.732h1.566v-5.1zm24.217-.284-1.516 3.453-1.714-3.453h-1.318l2.427 4.79-1 2.245h1.28l3.12-7.028zm-5.39 5.339h-1.252v-.5a2.45 2.45 0 0 1-1.649.607 2.7 2.7 0 0 1-2.67-2.778 2.7 2.7 0 0 1 2.67-2.778 2.45 2.45 0 0 1 1.649.606v-.5h1.253zm-1.105-2.662a1.639 1.639 0 1 0-3.267 0 1.639 1.639 0 1 0 3.267 0zM13.4 9.619h1.3V7.47a2.434 2.434 0 0 0 1.594.562 2.7 2.7 0 0 0 2.676-2.778 2.7 2.7 0 0 0-2.67-2.779 2.438 2.438 0 0 0-1.653.606v-.5h-1.253zm2.744-6.129a1.671 1.671 0 0 1 1.634 1.771 1.639 1.639 0 1 1-3.267 0 1.666 1.666 0 0 1 1.633-1.771z" transform="translate(.003 .011)" style="fill:#00de5a"/>
</svg>
